<?xml version="1.0" encoding="utf-8" ?>
<svg xmlns="http://www.w3.org/2000/svg" xmlns:xlink="http://www.w3.org/1999/xlink" width="384" height="384">
	<path fill="#A71E1E" transform="scale(0.375 0.375)" d="M918.504 492.758C922.29 500.537 924.697 509.011 927.304 517.239C935.562 517.252 943.874 517.34 952.093 516.449C945.189 521.233 938.599 526.539 931.998 531.727C934.404 540.375 937.317 548.907 940.058 557.455L920.201 542.88C919.827 542.593 919.198 542.328 918.775 542.106C913.341 543.122 902.619 553.488 898.166 557.17C900.525 548.601 903.371 540.158 906.094 531.699C899.569 526.621 892.974 521.691 886.251 516.88C894.237 516.794 902.229 516.872 910.215 516.887C913.08 508.882 915.761 500.805 918.504 492.758Z"/>
	<path fill="#A71E1E" transform="scale(0.375 0.375)" d="M104.288 490.991C106.676 494.114 111.365 511.519 112.924 516.272C121.615 515.853 130.391 516.047 139.094 516.012C131.828 520.49 124.949 526.049 117.997 531.039C120.32 539.907 123.314 548.592 126.434 557.206L105.376 541.963L104.561 541.709C97.1125 544.76 89.3171 552.315 83.1421 557.539C85.987 548.67 88.3541 539.646 91.2099 530.771C84.5215 525.553 77.877 520.493 70.6451 516.035C79.0971 516.151 87.5527 515.998 96.008 516.128C98.9192 507.804 101.378 499.322 104.288 490.991Z"/>
	<defs>
		<linearGradient id="gradient_0" gradientUnits="userSpaceOnUse" x1="943.45325" y1="283.84866" x2="652.65509" y2="299.64548">
			<stop offset="0" stop-color="#791E1E"/>
			<stop offset="1" stop-color="#A01C1C"/>
		</linearGradient>
	</defs>
	<path fill="url(#gradient_0)" transform="scale(0.375 0.375)" d="M636.13 100.048C660.356 109.525 684.873 117.447 708.2 129.204C801.848 176.405 877.029 258.42 919.064 354.302C937.039 395.304 949.472 437.079 955.576 481.454C929.189 481.476 902.763 481.204 876.382 481.629C862.742 411.565 836.152 350.531 790.201 295.462C780.751 284.137 770.794 272.7 759.87 262.756C758.456 255.896 759.51 235.307 759.549 226.903C759.132 218.302 759.55 209.478 759.542 200.85C748.212 193.934 733.736 189.714 724.234 180.299C720.552 176.651 717.629 172.267 714.581 168.094C707.079 161.187 696.003 153.533 685.984 151.275C669.409 134.314 654.92 114.78 636.13 100.048ZM714.581 168.094C717.629 172.267 720.552 176.651 724.234 180.299C733.736 189.714 748.212 193.934 759.542 200.85C759.55 209.478 759.132 218.302 759.549 226.903C772.19 236.041 783.107 247.758 793.76 259.06C846.311 314.81 879.732 381.615 897.34 455.862C904.886 455.771 912.443 455.933 919.989 456.014C918.676 448.408 916.629 440.901 914.446 433.504C909.356 416.25 903.998 398.985 897.33 382.268C867.071 306.399 816.641 239.151 749.948 191.668C738.509 183.524 726.92 174.813 714.581 168.094Z"/>
	<path fill="#EE3A3A" transform="scale(0.375 0.375)" d="M70.218 481.129C73.6753 436.681 88.1267 388.59 106.523 348.121C147.922 257.051 218.683 180.84 307.192 134.027C332.237 120.781 358.603 110.689 385.082 100.762C382.266 103.06 379.631 105.624 376.968 108.098C370.637 110.404 364.886 115.873 359.597 120.002C348.591 128.594 337.621 137.361 327.284 146.754C315.026 157.893 303.406 169.792 291.519 181.328C288.524 184.234 285.591 187.22 282.057 189.48C276.113 193.283 267.114 195.648 262.947 201.594C263.161 206.372 264.442 225.277 262.968 228.477C263.299 240.405 263.396 252.346 263.037 264.275C263.108 267.264 263.265 270.261 262.992 273.243C251.747 283.347 242.093 294.742 232.654 306.531C192.234 357.019 163.901 418.603 155.434 483.005C153.219 482.124 151.098 481.549 148.781 481.031C122.651 480.414 96.3608 481.045 70.218 481.129ZM262.947 201.594C178.253 267.071 127.669 352.043 104.513 456.024C111.752 456.051 119.451 455.572 126.643 456.292C130.694 438.983 135.029 421.96 140.833 405.136C156.817 358.797 182.627 316.41 213.715 278.708C228.496 260.782 244.793 243.028 262.968 228.477C264.442 225.277 263.161 206.372 262.947 201.594Z"/>
	<path fill="#FEFEFE" transform="scale(0.375 0.375)" d="M148.781 481.031C150.517 474.988 151.355 468.415 152.687 462.241C155.226 450.475 158.064 438.763 161.47 427.216C179.689 365.46 215.36 307.653 263.037 264.275C263.108 267.264 263.265 270.261 262.992 273.243C251.747 283.347 242.093 294.742 232.654 306.531C192.234 357.019 163.901 418.603 155.434 483.005C153.219 482.124 151.098 481.549 148.781 481.031Z"/>
	<path fill="#151718" transform="scale(0.375 0.375)" d="M511.612 23.4742C519.415 32.6177 527.061 41.8385 535.404 50.506C568.439 84.8266 606.862 113.47 647.038 138.845C664.113 149.628 681.514 160.302 699.856 168.797C695.219 162.968 690.541 157.166 685.984 151.275C696.003 153.533 707.079 161.187 714.581 168.094C717.629 172.267 720.552 176.651 724.234 180.299C733.736 189.714 748.212 193.934 759.542 200.85C759.55 209.478 759.132 218.302 759.549 226.903C759.51 235.307 758.456 255.896 759.87 262.756C759.791 265.576 759.492 268.575 759.853 271.372C768.874 279.722 776.967 289.038 784.839 298.461C834.15 357.485 870.092 438.795 873.081 516.188C874.914 563.632 865.446 605.7 849.411 650.033C849.086 653.294 851.244 657.457 852.414 660.439C865.316 635.139 873.762 600.979 876.97 572.803C889.401 572.428 901.906 572.668 914.345 572.677C927.968 572.686 941.643 572.49 955.255 572.984C951.371 614.536 941.261 655.834 925.43 694.438C872.641 823.163 767.319 916.644 634.989 958.286C613.571 965.025 591.57 970.004 569.398 973.52C559.003 975.168 547.401 974.89 537.375 977.897C528.447 980.575 520.154 986.793 511.46 990.433C503.245 986.715 495.796 981.004 487.235 978.126C477.869 974.978 466.978 975.316 457.177 973.965C445.05 972.293 432.809 969.676 420.865 967.005C352.821 951.784 289.945 921.045 235.38 877.795C162.276 819.85 104.428 735.691 80.139 645.316C73.7113 621.4 70.3731 597.163 67.551 572.615C94.5486 571.96 121.708 572.561 148.723 572.547C151.904 602.508 160.406 633.234 171.701 661.121C172.601 657.87 174.418 653.431 174.323 650.122C169.907 640.83 167.279 630.427 164.628 620.513C152.47 575.057 150.309 529.658 155.434 483.005C163.901 418.603 192.234 357.019 232.654 306.531C242.093 294.742 251.747 283.347 262.992 273.243C263.265 270.261 263.108 267.264 263.037 264.275C263.396 252.346 263.299 240.405 262.968 228.477C264.442 225.277 263.161 206.372 262.947 201.594C267.114 195.648 276.113 193.283 282.057 189.48C285.591 187.22 288.524 184.234 291.519 181.328C303.406 169.792 315.026 157.893 327.284 146.754C337.621 137.361 348.591 128.594 359.597 120.002C364.886 115.873 370.637 110.404 376.968 108.098C359.273 129.583 338.795 148.853 321.104 170.38C379.9 138.459 437.065 102.381 484.26 54.4065C493.981 44.5255 502.546 33.9118 511.612 23.4742ZM101.732 603.145C119.561 707.288 188.583 808.557 274.251 869.302C306.573 892.22 342.672 911.164 380.344 923.549C392.264 927.468 404.479 930.048 416.466 933.631C404.12 924.984 391.669 916.328 379.554 907.361C373.331 902.755 366.773 896.482 360.051 892.824C354.876 891.321 349.901 888.04 345.215 885.415C335.947 879.926 326.171 875.185 316.85 869.726C303.191 861.726 290.304 852.719 277.589 843.31C266.943 835.183 256.947 826.286 247.131 817.184C219.055 791.151 195.668 763.366 176.741 730.011C170.219 725.176 162.724 721.467 155.585 717.628L159.404 700.823C144.4 675.435 130.737 632.292 124.862 603.163C117.152 603.115 109.442 603.052 101.732 603.145ZM899.302 603.397C894.166 625.796 887.862 647.484 879.354 668.853C875.061 679.635 869.564 689.869 865.588 700.787C866.995 704.592 868.847 709.587 867.696 713.64C865.946 719.809 854.929 723.295 849.762 726.409L849.24 726.729C824.624 772.906 786.481 811.968 745.295 843.666C729.509 855.289 713.006 866.339 695.747 875.663C686.128 880.859 675.613 884.808 666.402 890.695C659.279 895.247 653.007 900.957 646.352 906.141C634.117 915.672 621.13 925.361 607.994 933.584C658.853 919.868 699.719 902.2 743.657 872.788C834.458 812.003 900.974 710.416 922.287 603.49C914.634 603.282 906.958 603.394 899.302 603.397Z"/>
	<path fill="#EE3A3A" transform="scale(0.375 0.375)" d="M345.215 885.415L345.712 882.117L346.222 881.835C350.505 883.976 357.272 888.989 360.051 892.824C354.876 891.321 349.901 888.04 345.215 885.415Z"/>
	<path fill="#969696" transform="scale(0.375 0.375)" d="M609.869 382.534C610.897 381.539 611.912 380.522 612.963 379.553C614.137 387.858 615.012 396.052 614.873 404.462C609.341 409.127 603.822 413.619 597.7 417.51C601.313 406.746 610.92 394.24 609.869 382.534Z"/>
	<path fill="#969696" transform="scale(0.375 0.375)" d="M449.922 366.668C458.623 365.254 468.06 370.642 475.377 374.643C472.472 376.212 469.581 377.477 466.499 378.659C463.317 379.372 459.972 379.812 456.73 379.261C449.842 378.089 445.669 373.513 441.759 368.164L449.922 366.668Z"/>
	<path fill="#969696" transform="scale(0.375 0.375)" d="M566.308 366.122C571.732 366.92 577.037 368.341 582.27 369.948C577.319 375.269 572.821 377.836 565.832 379.754C559.313 379.225 554.612 377.614 548.979 374.379C554.518 370.737 559.933 367.975 566.308 366.122Z"/>
	<path fill="#FEFEFE" transform="scale(0.375 0.375)" d="M343.235 502.753C344.994 505.055 346.612 507.425 348.225 509.829C347.819 515.285 348.027 520.139 349.466 525.455C350.781 530.313 352.746 534.982 354.923 539.51C356.738 543.283 367.38 560.422 366.789 563.016C366.135 562.649 365.531 562.314 364.935 561.857C355.935 552.679 347.527 542.995 342.394 531.046C338.028 520.885 339.237 512.668 343.235 502.753Z"/>
	<path fill="#969696" transform="scale(0.375 0.375)" d="M408.552 377.285C412.184 380.926 415.804 384.572 419.559 388.088C418.027 392.399 422.16 399.834 424.068 403.846C426.235 408.404 428.604 412.81 431.317 417.067C433.227 420.066 435.901 423.264 437.288 426.496C428.284 422.665 416.472 410.164 408.939 403.273C408.599 394.598 408.506 385.967 408.552 377.285Z"/>
	<path fill="#FEFEFE" transform="scale(0.375 0.375)" d="M211.749 577.915C212.958 580.711 213.965 583.174 213.913 586.259C207.413 616.37 197.283 645.843 188.019 675.212C184.408 686.66 178.464 701.267 176.762 712.776L171.649 710.499C177.082 691.988 182.003 673.329 187.471 654.822C195.092 629.029 203.346 603.46 211.749 577.915Z"/>
	<path fill="#EE3A3A" transform="scale(0.375 0.375)" d="M601.047 352.989C605.279 355.948 606.909 367.668 608.021 372.591C596.053 385.577 583.486 398.614 569.528 409.49C560.948 405.444 553.156 399.856 545.356 394.512C540.485 391.521 535.195 388.616 530.919 384.796C542.525 389.373 555.213 394.864 567.804 391.02C580.104 387.264 589.009 377.339 594.939 366.347C593.921 363.377 592.69 360.453 591.555 357.525L601.047 352.989Z"/>
	<path fill="#FEFEFE" transform="scale(0.375 0.375)" d="M811.624 582.635C819.577 602.025 825.869 622.428 832.852 642.207C840.722 664.498 849.379 686.778 856.484 709.31C854.047 710.399 851.464 711.401 849.104 712.639C838.189 683.253 828.059 653.549 817.334 624.089C813.669 614.02 810.938 603.21 806.491 593.49L811.624 582.635Z"/>
	<path fill="#EE3A3A" transform="scale(0.375 0.375)" d="M422.212 350.698C425.349 352.436 428.416 354.327 431.504 356.153C431.173 360.098 431.855 363.979 433.179 367.693C436.567 377.194 444.381 385.552 453.545 389.734C467.063 395.904 481.538 388.816 494.26 384.02L478.75 394.368C470.745 399.638 462.964 405.146 455.21 410.773C441.201 398.179 428.294 384.973 415.752 370.915C417.767 364.12 419.903 357.398 422.212 350.698Z"/>
	<path fill="#FEFEFE" transform="scale(0.375 0.375)" d="M516.931 144.681C525.619 146.686 534.107 148.817 542.363 152.273C569.678 163.706 592.906 186.161 608.46 211.118C625.363 238.239 634.389 270.365 639.053 301.749C621.597 276.848 600.947 256.064 573.187 242.826C572.182 241.832 570.69 241.018 569.506 240.22L570.11 240.06C573.288 241.081 576.235 242.857 579.296 244.222C599.88 253.405 615.134 265.677 629.871 282.691C624.502 263.425 618.354 245.351 608.563 227.846C593.113 200.223 570.97 176.775 541.578 164.004C533.663 160.565 525.294 158.147 516.997 155.813L516.931 144.681Z"/>
	<path fill="#FEFEFE" transform="scale(0.375 0.375)" d="M327.964 525.225L334.078 538.639L328.422 540.641C318.213 545.222 307.695 548.934 297.364 553.207C274.468 562.678 251.139 573.228 229.816 585.909C233.441 591.497 246.254 609.411 246.255 614.851C237.384 600.363 227.191 587.027 216.726 573.673C234.381 564.798 251.514 555.295 269.585 547.188C288.575 538.67 308.305 531.978 327.964 525.225Z"/>
	<path fill="#FEFEFE" transform="scale(0.375 0.375)" d="M695.94 526.724C720.132 534.184 743.407 542.805 766.959 552.039C779.531 556.968 792.538 561.549 804.411 568.045C794.724 585.59 785.531 603.422 775.644 620.851C774.224 617.079 788.063 586.392 790.491 580.57C780.989 574.153 768.661 570.19 758.073 565.836C743.921 560.015 729.73 554.405 715.347 549.177C708.233 546.591 700.909 543.706 693.543 541.93C692.12 541.541 691.623 541.696 690.866 540.38C691.44 535.641 694.219 531.153 695.94 526.724Z"/>
	<path fill="#FEFEFE" transform="scale(0.375 0.375)" d="M382.786 302.394C389.499 265.718 401.504 231.655 422.441 200.629C437.39 178.475 460.539 159.356 485.793 150.349C493.197 147.708 500.796 146.188 508.49 144.699L508.491 156.147C501.016 157.695 493.552 159.326 486.387 162.017C461.93 171.202 439.505 190.275 425.295 212.064C412.189 232.159 403.979 255.916 397.397 278.833C414.651 260.878 433.702 248.922 456.526 239.319C453.631 241.414 450.562 243.429 447.816 245.709C421.007 259.319 400.882 278.716 382.786 302.394Z"/>
	<path fill="#FEFEFE" transform="scale(0.375 0.375)" d="M443.741 249.761C443.694 249.924 443.668 250.095 443.601 250.25C442.452 252.894 436.647 256.869 434.452 259.026C428.796 264.585 423.296 270.916 418.466 277.203C391.37 312.47 370.259 350.189 353.708 391.476C348.914 403.434 343.781 415.969 341.785 428.752C340.258 438.531 340.521 448.639 343.367 458.147C354.471 495.236 401.269 545.907 428.535 574.052C439.569 585.442 451.392 596.231 461.853 608.146C463.353 609.855 472.654 620.723 472.294 621.8L471.724 621.847C461.164 608.735 446.682 598.265 434.137 587.133C406.095 562.25 379.531 536.291 358.325 505.189C348.252 490.415 332.829 466.254 331.032 448.446C330.408 442.263 331.462 435.705 332.621 429.641C341.568 382.822 375.313 320.674 405.962 284.47C417.009 271.421 429.565 259.363 443.741 249.761Z"/>
	<path fill="#FEFEFE" transform="scale(0.375 0.375)" d="M577.645 246.793C588.231 253.9 598.148 261.894 606.92 271.174C641.49 307.748 682.667 381.554 692.341 431.032C693.134 435.09 693.64 439.176 693.147 443.307C690.697 463.809 672.269 494.147 660.511 511.374C641.924 538.607 618.927 563.102 594.03 584.668C579.817 596.98 564.657 608.05 551.63 621.705C551.131 622.044 550.604 622.272 550.059 622.529C551.236 615.956 580.618 589.065 586.832 582.83C618.712 550.845 676.266 490.202 679.871 443.574C682.93 404.018 631.59 309.173 607.13 277.509C601.421 270.118 595.165 262.987 588.319 256.624C584.838 253.388 580.556 251.186 577.422 247.535L577.645 246.793Z"/>
	<path fill="#969696" transform="scale(0.375 0.375)" d="M422.968 326.79C442.491 306.908 466.617 291.233 492.093 280.097C498.073 277.483 504.715 274.22 511.342 273.978C519.281 273.689 527.391 277.569 534.422 280.825C560.214 292.77 579.593 307.645 600.194 327C595.481 331.491 590.19 335.588 585.226 339.815C565.775 318.654 539.292 301.225 512.433 291.133C490.854 299.091 451.984 322.109 439.126 340.657C433.28 336.61 428.163 331.615 422.968 326.79Z"/>
	<path fill="#EE3A3A" transform="scale(0.375 0.375)" d="M176.741 730.011C194.439 738.335 212.406 745.551 230.957 751.766C242.421 755.606 254.147 758.811 265.547 762.814C264.846 776.061 264.518 789.54 262.946 802.715C270.708 810.501 279.101 818.208 287.813 824.91C284.238 830.956 280.569 836.94 277.589 843.31C266.943 835.183 256.947 826.286 247.131 817.184C219.055 791.151 195.668 763.366 176.741 730.011Z"/>
	<path fill="#EE3A3A" transform="scale(0.375 0.375)" d="M849.24 726.729C824.624 772.906 786.481 811.968 745.295 843.666L733.579 830.422C742.079 822.292 755.281 807.558 761.976 797.989C762.082 785.674 761.65 773.302 761.479 760.984C790.908 750.489 821.116 740.365 849.24 726.729Z"/>
	<path fill="#FEFEFE" transform="scale(0.375 0.375)" d="M482.092 704.747C501.408 704.454 520.737 704.541 540.055 704.497L540.156 725.018C527.122 725.104 514.07 724.842 501.034 724.749L501.056 753.491C513.542 753.098 525.995 752.941 538.488 752.992L538.487 772.762L501.034 772.501L501.027 786.75L501.039 803.275L540.602 803.501L540.595 824.014L481.402 823.757L481.398 744.047C481.383 732.72 480.669 721.278 481.111 709.972C481.18 708.231 481.143 706.257 482.092 704.747Z"/>
	<path fill="#969696" transform="scale(0.375 0.375)" d="M176.762 712.776C178.464 701.267 184.408 686.66 188.019 675.212C197.283 645.843 207.413 616.37 213.913 586.259C219.198 601.793 223.675 617.634 229.238 633.062C235.883 651.494 243.682 669.544 250.058 688.051C235.547 679.052 221.194 670.193 207.361 660.17C218.373 677.128 229.919 693.442 242.337 709.402C226.175 701.905 210.471 693.776 194.565 685.786C217.692 708.918 238.877 726.79 266.848 743.951C241.422 739.874 217.251 731.458 193.782 720.985C188.129 718.462 182.033 716.033 176.762 712.776Z"/>
	<path fill="#FEFEFE" transform="scale(0.375 0.375)" d="M411.769 704.739C429.573 704.502 447.428 704.621 465.233 704.76C465.499 717.173 465.438 729.596 465.464 742.012L445.838 742.035L445.523 724.781L419.857 724.754C419.081 750.867 419.689 777.068 419.748 803.192C427.386 803.484 437.96 804.342 445.36 802.946C446.162 801.872 445.923 800.407 445.915 799.125L445.927 785.747L465.52 786.008L465.507 824.011L399.965 824.035L399.97 704.997L411.769 704.739Z"/>
	<path fill="#FEFEFE" transform="scale(0.375 0.375)" d="M603.54 703.73C609.752 703.636 615.97 703.724 622.183 703.755L622.45 823.761L602.812 823.508L602.723 774.515L580.048 774.502C580.053 783.256 581.403 819.059 579.379 824.006L559.977 824.037C559.885 784.026 559.64 744.001 560.156 703.993L580.034 703.988L580.012 753.485L602.476 753.494C602.394 746.091 601.254 707.485 603.54 703.73Z"/>
	<path fill="#969696" transform="scale(0.375 0.375)" d="M769.871 689.896C773.925 677.29 778.519 664.812 782.811 652.28C789.713 632.123 796.159 612.225 806.491 593.49C810.938 603.21 813.669 614.02 817.334 624.089C828.059 653.549 838.189 683.253 849.104 712.639C840.612 716.063 832.709 720.553 824.315 724.139C804.362 732.663 783.665 739.875 762.932 746.243L764.496 738.802C787.718 724.95 809.048 709.018 830.104 692.079C811.732 698.048 793.689 705.056 775.329 711.078C780.115 704.667 785.623 698.641 790.864 692.595L814.656 665.326C809.429 667.534 804.404 670.816 799.399 673.547C789.518 678.936 779.611 684.254 769.871 689.896Z"/>
	<path fill="#FEFEFE" transform="scale(0.375 0.375)" d="M439.126 340.657C451.984 322.109 490.854 299.091 512.433 291.133C539.292 301.225 565.775 318.654 585.226 339.815C567.809 354.05 546.353 372.391 522.842 373.58C518.304 360.899 519.319 346.828 518.769 333.561C516.302 347.606 515.894 361.65 511.965 375.493C507.719 362.23 507.805 348.284 505.422 334.668C504.849 341.971 506.262 368.244 500.865 372.693C498.829 374.371 495.694 373.896 493.335 373.384C472.98 368.967 455.009 353.4 439.126 340.657Z"/>
	<path fill="#151718" transform="scale(0.375 0.375)" d="M512.196 305.873C513.258 311.746 513.676 317.418 512.522 323.304L511.352 322.152C509.998 317.347 511.163 310.695 512.196 305.873Z"/>
	<path fill="#969696" transform="scale(0.375 0.375)" d="M693.543 541.93C700.909 543.706 708.233 546.591 715.347 549.177C729.73 554.405 743.921 560.015 758.073 565.836C768.661 570.19 780.989 574.153 790.491 580.57C788.063 586.392 774.224 617.079 775.644 620.851C773.632 625.294 770.64 629.681 768.17 633.899C762.077 644.304 755.719 654.636 750.295 665.413C739.496 686.872 730.446 708.985 723.473 731.978C720.548 741.625 718.469 751.5 715.594 761.162C716.51 745.176 716.106 729.14 717.148 713.118C719.164 682.083 722.951 651.275 726.033 620.344C722.253 630.032 719.63 640.365 716.712 650.348C708.962 676.866 702.367 703.17 698.365 730.535C693.462 674.365 698.585 616.089 708.447 560.753C695.044 581.109 678.865 598.972 662.155 616.614C676.932 591.358 687.073 570.578 693.543 541.93Z"/>
	<path fill="#969696" transform="scale(0.375 0.375)" d="M229.816 585.909C251.139 573.228 274.468 562.678 297.364 553.207C307.695 548.934 318.213 545.222 328.422 540.641C333.819 564.679 343.676 586.106 357.226 606.588C339.678 592.467 324.666 576.33 313.092 556.898C319.362 579.111 321.827 601.743 323.982 624.656C325.871 644.743 327.338 664.878 328.301 685.03C329.051 700.713 328.758 716.795 330.919 732.345C326.786 724.107 325.473 713.943 322.76 705.088C315.558 681.586 308.354 658.006 297.843 635.73C303.341 675.107 307.703 714.657 307.511 754.479C302.107 744.338 297.063 726.443 292.977 714.944C287.125 698.476 280.32 682.172 273.248 666.196C268.924 656.431 263.942 646.736 258.71 637.43C255.476 631.678 247.867 620.551 246.255 614.851C246.254 609.411 233.441 591.497 229.816 585.909Z"/>
	<path fill="#FEFEFE" transform="scale(0.375 0.375)" d="M609.869 382.534C610.92 394.24 601.313 406.746 597.7 417.51C586.666 428.1 573.038 435.917 560.411 444.419C568.926 441.689 577.396 438.247 585.511 434.494C573.828 444.587 563.355 455.512 552.38 466.329C548.742 482.598 544.651 499.112 543.183 515.75C549.55 500.11 550.501 483.349 554.849 467.231C561.329 462.501 567.854 457.807 574.099 452.769C581.177 447.061 587.996 440.957 595.158 435.373C588.738 445.363 583.012 455.511 579.742 467.016C575.453 482.107 577.34 492.494 565.129 504.345C560.67 508.673 555.83 512.583 550.635 515.993C541.34 522.095 530.609 527.394 519.701 529.83L519.273 529.922C520.33 521.125 524.569 471.553 520.002 465.33C518.57 463.379 514.542 462.555 512.276 462.534C510.19 462.514 506.582 463.319 505.026 464.821C500.235 469.445 502.272 495.764 502.617 502.998C503.034 511.759 503.045 521.304 504.521 529.94C485.065 525.169 463.256 514.759 452.455 496.983C448.849 491.048 447.742 483.959 446.18 477.286C441.562 457.551 435.506 449.452 422.603 434.611C438.356 444.909 453.506 456.296 468.781 467.293C471.636 483.605 473.638 502.797 481.223 517.616C480.664 510.072 478.835 502.591 477.348 495.184C475.438 485.674 473.644 476.08 471.364 466.654C459.685 455.866 448.885 443.412 435.998 434.071C445.495 437.78 454.976 441.436 464.635 444.71C455.449 438.545 445.98 433.442 437.288 426.496C435.901 423.264 433.227 420.066 431.317 417.067C428.604 412.81 426.235 408.404 424.068 403.846C422.16 399.834 418.027 392.399 419.559 388.088C430.96 397.595 442.194 407.283 453.409 417.008C462.437 411.383 471.911 406.556 481.218 401.422C491.462 395.771 501.547 389.857 511.828 384.265C531.823 394.398 551.139 405.841 571.184 415.948C584.648 405.41 597.211 394.007 609.869 382.534Z"/>
	<path fill="#151718" transform="scale(0.375 0.375)" d="M484.009 427.293C490.88 428.468 497.43 435.667 503.065 439.55C505.779 441.42 508.782 442.835 511.743 444.265C514.437 443.107 517.046 441.675 519.48 440.043C523.898 437.081 535.424 426.972 540.491 427.755C541.928 427.977 542.023 428.312 542.741 429.449C542.94 431.866 542.706 433.454 541.144 435.365C534.057 441.365 524.615 450.402 514.921 451.717C505.802 452.954 495.299 446.344 488.353 441.108C485.758 439.152 482.042 435.905 481.862 432.398C481.745 430.14 482.683 428.978 484.009 427.293Z"/>
	<defs>
		<linearGradient id="gradient_1" gradientUnits="userSpaceOnUse" x1="159.24783" y1="429.40717" x2="281.70312" y2="496.58307">
			<stop offset="0" stop-color="#731A1A"/>
			<stop offset="1" stop-color="#CB2323"/>
		</linearGradient>
	</defs>
	<path fill="url(#gradient_1)" transform="scale(0.375 0.375)" d="M155.434 483.005C163.901 418.603 192.234 357.019 232.654 306.531C242.093 294.742 251.747 283.347 262.992 273.243C262.305 322.318 262.927 371.48 262.948 420.565C262.965 458.259 262.161 496.019 263.043 533.698C248.07 540.65 233.221 547.811 218.547 555.378C211.631 558.945 204.013 562.29 197.901 567.14C192.42 587.62 186.081 607.818 180.316 628.211C178.781 633.64 176.685 645.768 174.323 650.122C169.907 640.83 167.279 630.427 164.628 620.513C152.47 575.057 150.309 529.658 155.434 483.005Z"/>
	<path fill="#FEFEFE" transform="scale(0.375 0.375)" d="M210.167 472.215C213.24 474.413 216.456 491.577 217.418 495.615C225.268 496.33 233.452 495.752 241.345 495.741C235.381 500.724 228.794 505.169 222.36 509.525C224.847 517.479 228.176 525.174 231.401 532.849C224.952 527.309 218.355 521.924 211.831 516.472C209.975 516.848 194.846 530.284 191.694 532.771C194.658 524.958 197.517 517.131 200.205 509.219C193.672 504.71 187.131 500.263 180.402 496.05L204.677 495.677L210.167 472.215Z"/>
	<path fill="#A71E1E" transform="scale(0.375 0.375)" d="M759.853 271.372C768.874 279.722 776.967 289.038 784.839 298.461C834.15 357.485 870.092 438.795 873.081 516.188C874.914 563.632 865.446 605.7 849.411 650.033C846.385 644.957 844.643 637.93 842.704 632.352C837.852 618.394 833.179 604.364 828.796 590.251C825.686 580.239 823.249 568.868 818.456 559.557C799.135 550.707 779.577 542.366 759.827 534.519C758.95 518.818 759.565 502.86 759.566 487.127L759.556 401.333L759.522 319.966C759.496 303.834 758.888 287.467 759.853 271.372Z"/>
	<path fill="#FEFEFE" transform="scale(0.375 0.375)" d="M814.63 469.257C818.197 472.338 821.52 488.733 822.836 493.965L846.962 494.499C840.788 499.7 834.294 504.625 827.692 509.269C830.164 517.619 832.843 525.851 835.673 534.087C829.28 528.787 822.768 523.619 816.314 518.394L815.749 518.27C809.414 520.901 801.135 529.095 795.859 533.769C798.072 525.476 800.547 517.248 802.951 509.009C796.331 504.338 789.776 499.627 783.512 494.485C791.251 494.584 799.137 494.918 806.814 493.82C810.063 485.928 812.231 477.446 814.63 469.257Z"/>
	<path fill="#EE3A3A" transform="scale(0.375 0.375)" d="M280.068 763.254C290.207 765.128 300.344 768.141 310.408 770.461C317.512 772.099 328.68 772.752 334.808 776.155C344.498 781.535 357.924 797.839 366.074 805.892C379.364 819.022 392.984 832.07 407.071 844.339C439.171 872.297 475.077 894.173 511.57 915.782C524.692 909.73 537.013 901.747 549.105 893.887C582.611 872.105 613.842 847.611 642.991 820.244C649.027 814.576 654.877 808.581 660.565 802.568C666.043 796.776 671.669 788.856 678.594 784.796C687.449 779.604 699.057 779.346 708.797 776.474C721.831 772.631 734.55 767.93 747.486 763.791L747.553 793.458C743.504 799.436 738.109 804.756 733.25 810.081C671.072 877.592 593.433 932.643 511.734 974.02C435.036 933.448 375.044 889.158 312.685 828.921C300.975 817.61 288.906 806.679 277.906 794.662C278.861 784.214 279.567 773.733 280.068 763.254Z"/>
	<path fill="#969696" transform="scale(0.375 0.375)" d="M516.997 155.813C525.294 158.147 533.663 160.565 541.578 164.004C570.97 176.775 593.113 200.223 608.563 227.846C618.354 245.351 624.502 263.425 629.871 282.691C615.134 265.677 599.88 253.405 579.296 244.222C576.235 242.857 573.288 241.081 570.11 240.06L569.506 240.22C570.69 241.018 572.182 241.832 573.187 242.826C574.204 244.773 576.163 245.339 577.645 246.793L577.422 247.535C580.556 251.186 584.838 253.388 588.319 256.624C595.165 262.987 601.421 270.118 607.13 277.509C631.59 309.173 682.93 404.018 679.871 443.574C676.266 490.202 618.712 550.845 586.832 582.83C580.618 589.065 551.236 615.956 550.059 622.529C550.604 622.272 551.131 622.044 551.63 621.705C558.73 619.489 567.756 609.294 574.03 604.712C586.069 595.921 598.979 588.36 610.968 579.509C634.561 562.092 653.07 539.474 670.219 515.906C672.437 512.248 674.759 508.618 676.813 504.866C680.959 513.044 684.779 521.015 681.749 530.368C679.497 537.316 674.969 543.861 670.776 549.772C669.585 551.451 667.903 553.245 666.909 555.003C664.717 560.622 660.153 565.654 656.179 570.087C627.595 601.976 589.297 623.08 554.984 647.959C540.043 658.791 525.598 670.171 512.539 683.239C499.833 671.136 486.717 659.834 472.72 649.228C454.755 635.616 371.153 579.79 365.345 566.092C364.855 564.938 364.974 563.108 364.935 561.857C365.531 562.314 366.135 562.649 366.789 563.016C367.38 560.422 356.738 543.283 354.923 539.51C352.746 534.982 350.781 530.313 349.466 525.455C348.027 520.139 347.819 515.285 348.225 509.829C360.097 524.114 370.547 539.462 383.339 553.013C404.095 575.001 429.592 590.078 453.877 607.614C458.07 610.642 467.532 620.96 471.227 621.802C471.389 621.839 471.558 621.832 471.724 621.847L472.294 621.8C472.654 620.723 463.353 609.855 461.853 608.146C451.392 596.231 439.569 585.442 428.535 574.052C401.269 545.907 354.471 495.236 343.367 458.147C340.521 448.639 340.258 438.531 341.785 428.752C343.781 415.969 348.914 403.434 353.708 391.476C370.259 350.189 391.37 312.47 418.466 277.203C423.296 270.916 428.796 264.585 434.452 259.026C436.647 256.869 442.452 252.894 443.601 250.25C443.668 250.095 443.694 249.924 443.741 249.761C444.932 248.019 446.971 247.824 447.816 245.709C450.562 243.429 453.631 241.414 456.526 239.319C433.702 248.922 414.651 260.878 397.397 278.833C403.979 255.916 412.189 232.159 425.295 212.064C439.505 190.275 461.93 171.202 486.387 162.017C493.552 159.326 501.016 157.695 508.491 156.147L508.513 249.43C499.725 250.248 490.909 252.542 482.916 256.316C475.077 260.017 467.972 265.237 461.007 270.35C443.393 283.28 426.928 297.173 412.935 314.039C386.981 345.325 356.037 403.444 360.011 445C364.505 491.999 429.656 543.957 459.084 579.286C483.569 608.68 504.071 642.476 513.028 679.928C514.876 666.043 519.895 652.927 525.821 640.318C543.17 603.398 570.284 573.726 598.025 544.39C615.795 525.599 633.78 506.725 647.907 484.945C653.444 476.409 659.481 467.379 662.194 457.47C664.9 447.584 664.176 436.462 662.846 426.425C657.944 389.423 641.086 353.837 618.548 324.327C600.503 300.7 563.822 266.123 536.902 254.468C530.351 251.632 523.51 251.106 516.768 249.123C516.031 239.41 516.956 229.662 516.985 219.936L516.997 155.813Z"/>
	<path fill="#FEFEFE" transform="scale(0.375 0.375)" d="M670.219 515.906C672.437 512.248 674.759 508.618 676.813 504.866C680.959 513.044 684.779 521.015 681.749 530.368C679.497 537.316 674.969 543.861 670.776 549.772C669.585 551.451 667.903 553.245 666.909 555.003C661.736 558.267 657.004 564.364 652.445 568.554C657.365 558.363 664.408 549.294 668.862 538.857C672.044 531.401 673.309 523.652 670.219 515.906Z"/>
	<path fill="#EE3A3A" transform="scale(0.375 0.375)" d="M511.522 46.8318C516.188 49.1401 525.544 60.7292 529.86 64.9484C536.953 71.8806 544.224 78.7335 551.608 85.3541C566.717 98.8997 582.529 112.137 598.951 124.064C620.67 139.838 643.329 154.768 666.714 167.938C679.341 175.049 692.07 182.001 704.951 188.643C716.621 194.662 731.428 199.868 741.013 209.032C743.682 211.584 744.978 215.111 745.288 218.73C746.2 229.396 745.208 240.45 745.147 251.157L745.025 315.094L745.013 529.501C728.439 523.466 711.939 517.445 694.973 512.58C692.331 506.235 689.574 499.961 686.723 493.708C696.399 477.751 706.22 457.943 707.196 439.012C707.829 426.732 702.425 413.248 697.653 402.1C695.064 396.05 692.194 390.189 691.54 383.556C690.074 368.698 691.042 350.326 691.041 335.144L691.069 244.007C678.156 237.604 665.504 230.713 652.698 224.103C643.195 219.197 632.221 215.014 623.95 208.141C616.226 201.723 611.721 191.729 605.355 184.031C589.322 164.645 568.355 148.128 544.887 138.84C534.769 134.837 524.247 132.153 513.694 129.588C508.554 129.508 502.277 131.864 497.262 133.061C464.987 140.766 438.839 159.056 417.921 184.444C411.768 191.912 407.74 201.925 400.152 208.062C394.02 213.021 385.63 216.152 378.606 219.685L333.147 242.09C334.255 248.957 333.548 256.691 333.541 263.669L333.575 304.437L333.853 350.945C333.938 361.12 334.701 371.987 333.146 382.046C332.083 388.921 329.026 395.695 326.83 402.285C324.099 410.482 321.635 418.774 319.251 427.078C317.714 432.436 315.695 438.156 315.764 443.794C315.927 457.039 328.165 480.164 334.763 492.059C331.077 497.743 328.595 503.404 326.213 509.711C310.099 516.023 293.578 521.078 277.49 527.549L277.429 208.769C294.05 200.237 310.879 192.103 327.359 183.296C365.233 163.055 404.39 139.471 438.4 113.164C464.485 92.9874 488.4 70.2877 511.522 46.8318Z"/>
</svg>
